<svg width="15" height="13" viewBox="0 0 15 13" fill="none" xmlns="http://www.w3.org/2000/svg">
<path fill-rule="evenodd" clip-rule="evenodd" d="M15 0.5H0V3C0.920475 3 1.66667 3.74619 1.66667 4.66667V7.16667C1.66667 9.83331 1.66667 11.1666 2.45483 12.0268C2.5138 12.0911 2.57555 12.1529 2.6399 12.2118C3.50003 13 4.83335 13 7.5 13C10.1666 13 11.5 13 12.3601 12.2118C12.4245 12.1529 12.4862 12.0911 12.5452 12.0268C13.3333 11.1666 13.3333 9.83331 13.3333 7.16667V4.66667C13.3333 3.74619 14.0795 3 15 3V0.5ZM6.41667 4.66667C6.41667 4.11438 5.96895 3.66667 5.41667 3.66667C4.86438 3.66667 4.41667 4.11438 4.41667 4.66667V8.83333C4.41667 9.38562 4.86438 9.83333 5.41667 9.83333C5.96895 9.83333 6.41667 9.38562 6.41667 8.83333V4.66667ZM10.5833 4.66667C10.5833 4.11438 10.1356 3.66667 9.58333 3.66667C9.03105 3.66667 8.58333 4.11438 8.58333 4.66667V8.83333C8.58333 9.38562 9.03105 9.83333 9.58333 9.83333C10.1356 9.83333 10.5833 9.38562 10.5833 8.83333V4.66667Z" fill="#CCD2E3"/>
</svg>
